<?xml version="1.0" encoding="UTF-8" standalone="no"?>
<!DOCTYPE svg PUBLIC "-//W3C//DTD SVG 1.1//EN" "http://www.w3.org/Graphics/SVG/1.1/DTD/svg11.dtd">
<svg width="100%" height="100%" viewBox="0 0 350 252" version="1.1" xmlns="http://www.w3.org/2000/svg" xmlns:xlink="http://www.w3.org/1999/xlink" xml:space="preserve" xmlns:serif="http://www.serif.com/" style="fill-rule:evenodd;clip-rule:evenodd;stroke-linejoin:round;stroke-miterlimit:2;">
    <g transform="matrix(1,0,0,1,-429.61039,-234.211501)">
        <g transform="matrix(1,0,0,1,138.923926,7.569568)">
            <path d="M640,289.536L640,415.325C640,450.037 611.818,478.219 577.106,478.219L353.581,478.219C318.868,478.219 290.686,450.037 290.686,415.325L290.686,289.536C290.686,254.824 318.868,226.642 353.581,226.642L577.106,226.642C611.818,226.642 640,254.824 640,289.536Z" style="fill:rgb(208,0,0);"/>
        </g>
        <g transform="matrix(-1.279344,-0,0,-1.033332,1362.187138,670.740798)">
            <path d="M590.058,282.667C590.479,281.825 591.222,281.312 592.022,281.312C592.822,281.312 593.565,281.825 593.987,282.667C602.204,299.102 633.887,362.468 644.516,383.725C645.223,385.139 645.256,386.917 644.602,388.37C643.948,389.823 642.71,390.724 641.367,390.724C622.054,390.724 565.967,390.724 544.512,390.724C542.798,390.724 541.218,389.574 540.384,387.72C539.55,385.866 539.592,383.598 540.495,381.794C551.956,358.87 582.076,298.63 590.058,282.667Z" style="fill:white;"/>
        </g>
        <g transform="matrix(-1.279344,-0,0,-1.033332,1362.187138,756.916389)">
            <path d="M590.058,282.667C590.479,281.825 591.222,281.312 592.022,281.312C592.822,281.312 593.565,281.825 593.987,282.667C602.204,299.102 633.887,362.468 644.516,383.725C645.223,385.139 645.256,386.917 644.602,388.37C643.948,389.823 642.71,390.724 641.367,390.724C622.054,390.724 565.967,390.724 544.512,390.724C542.798,390.724 541.218,389.574 540.384,387.72C539.55,385.866 539.592,383.598 540.495,381.794C551.956,358.87 582.076,298.63 590.058,282.667Z" style="fill:white;"/>
        </g>
    </g>
</svg>
